<?xml version="1.0" encoding="UTF-8" standalone="no"?>
<!DOCTYPE svg PUBLIC "-//W3C//DTD SVG 1.1//EN" "http://www.w3.org/Graphics/SVG/1.1/DTD/svg11.dtd">
<svg version="1.1" xmlns="http://www.w3.org/2000/svg" xmlns:xlink="http://www.w3.org/1999/xlink" preserveAspectRatio="xMidYMid meet" viewBox="0 0 640 140" width="360" height="360"><defs><path d="M239.34 93.62C239.28 47.49 275.36 9.99 319.88 9.93C364.4 9.86 400.59 47.26 400.66 93.39C400.72 139.52 364.64 177.02 320.12 177.08C275.6 177.14 239.41 139.75 239.34 93.62Z" id="gXr3zBjTz"></path><linearGradient id="gradientdbTIktMeh" gradientUnits="userSpaceOnUse" x1="320.12" y1="177.08" x2="317.69" y2="0"><stop style="stop-color: #6b4141;stop-opacity: 1" offset="0%"></stop><stop style="stop-color: #efbed8;stop-opacity: 1" offset="0%"></stop><stop style="stop-color: #eeb2d0;stop-opacity: 1" offset="13.466020363587175%"></stop><stop style="stop-color: #e76299;stop-opacity: 1" offset="100%"></stop><stop style="stop-color: #c6a0ad;stop-opacity: 1" offset="100%"></stop><stop style="stop-color: #1c365f;stop-opacity: 1" offset="100%"></stop><stop style="stop-color: #232e40;stop-opacity: 1" offset="100%"></stop><stop style="stop-color: #c92e2e;stop-opacity: 1" offset="100%"></stop></linearGradient><path d="M88.42 118.66C88.36 72.53 124.44 35.03 168.96 34.96C213.48 34.9 249.67 72.3 249.74 118.42C249.8 164.55 213.72 202.05 169.2 202.12C124.68 202.18 88.49 164.78 88.42 118.66Z" id="a1CO4wj0rm"></path><radialGradient id="gradienta37BmOPwYV" gradientUnits="userSpaceOnUse" cx="169.2" cy="202.12" dx="168.96" dy="34.96" r="167.15"><stop style="stop-color: #bdd0ea;stop-opacity: 1" offset="0%"></stop><stop style="stop-color: #1c365f;stop-opacity: 1" offset="100%"></stop><stop style="stop-color: #232e40;stop-opacity: 1" offset="100%"></stop><stop style="stop-color: #010000;stop-opacity: 1" offset="100%"></stop></radialGradient><path d="" id="d5wKVCaobv"></path><path d="M171.09 202.12C161.85 219.64 161.18 288.25 169.08 407.96" id="hNmscT5vd"></path><path d="M388.28 134.87C388.2 82.9 427.38 40.64 475.72 40.57C524.05 40.5 563.36 82.65 563.43 134.62C563.5 186.59 524.32 228.85 475.99 228.91C427.65 228.98 388.35 186.84 388.28 134.87Z" id="h51W4y8d7"></path><radialGradient id="gradienta3pB82m8M" gradientUnits="userSpaceOnUse" cx="475.99" cy="228.91" dx="475.85" dy="40.57" r="188.34"><stop style="stop-color: #ded4e4;stop-opacity: 1" offset="0%"></stop><stop style="stop-color: #bfa0da;stop-opacity: 1" offset="100%"></stop><stop style="stop-color: #1c365f;stop-opacity: 1" offset="100%"></stop><stop style="stop-color: #232e40;stop-opacity: 1" offset="100%"></stop><stop style="stop-color: #010000;stop-opacity: 1" offset="100%"></stop></radialGradient><path d="" id="b3DG1lf7SW"></path><path d="M479.18 228.92C489.89 233.16 488.78 292.84 475.85 407.96" id="k1Pi6qp5T"></path><path d="M174.01 205.59L177.66 211.07L170.36 211.07L163.06 211.07L166.71 205.59L170.36 200.12L174.01 205.59Z" id="bsriyKOnl"></path><path d="M485.1 232.65L488.75 238.12L481.45 238.12L474.16 238.12L477.81 232.65L481.45 227.18L485.1 232.65Z" id="c1mt5TWdN"></path><path d="" id="b1cV7Grb1X"></path><path d="M320 177.08L320 407.96" id="i2QPBm51Xw"></path><path d="M324.76 180.55L328.41 186.03L321.11 186.03L313.81 186.03L317.46 180.55L321.11 175.08L324.76 180.55Z" id="a2uwMu4uQg"></path></defs><g><g><g><g><filter id="shadow1173656" x="204.34" y="-25.07" width="236.31" height="241.15" filterUnits="userSpaceOnUse" primitiveUnits="userSpaceOnUse"><feFlood></feFlood><feComposite in2="SourceAlpha" operator="in"></feComposite><feGaussianBlur stdDeviation="3.46"></feGaussianBlur><feOffset dx="5" dy="-4" result="afterOffset"></feOffset><feFlood flood-color="#000000" flood-opacity="0.5"></feFlood><feComposite in2="afterOffset" operator="in"></feComposite><feMorphology operator="dilate" radius="1"></feMorphology><feComposite in2="SourceAlpha" operator="out"></feComposite></filter><path d="M239.34 93.62C239.28 47.49 275.36 9.99 319.88 9.93C364.4 9.86 400.59 47.26 400.66 93.39C400.72 139.52 364.64 177.02 320.12 177.08C275.6 177.14 239.41 139.75 239.34 93.62Z" id="c6iTKFTfM" fill="white" fill-opacity="1" filter="url(#shadow1173656)"></path></g><use xlink:href="#gXr3zBjTz" opacity="1" fill="url(#gradientdbTIktMeh)"></use><g><use xlink:href="#gXr3zBjTz" opacity="1" fill-opacity="0" stroke="#efbed8" stroke-width="1" stroke-opacity="1"></use></g></g><g><g><filter id="shadow6529403" x="53.42" y="-0.04" width="236.31" height="241.15" filterUnits="userSpaceOnUse" primitiveUnits="userSpaceOnUse"><feFlood></feFlood><feComposite in2="SourceAlpha" operator="in"></feComposite><feGaussianBlur stdDeviation="3.46"></feGaussianBlur><feOffset dx="5" dy="-4" result="afterOffset"></feOffset><feFlood flood-color="#000000" flood-opacity="0.5"></feFlood><feComposite in2="afterOffset" operator="in"></feComposite><feMorphology operator="dilate" radius="1"></feMorphology><feComposite in2="SourceAlpha" operator="out"></feComposite></filter><path d="M88.42 118.66C88.36 72.53 124.44 35.03 168.96 34.96C213.48 34.9 249.67 72.3 249.74 118.42C249.8 164.55 213.72 202.05 169.2 202.12C124.68 202.18 88.49 164.78 88.42 118.66Z" id="cu5hFzjdL" fill="white" fill-opacity="1" filter="url(#shadow6529403)"></path></g><use xlink:href="#a1CO4wj0rm" opacity="1" fill="url(#gradienta37BmOPwYV)"></use><g><use xlink:href="#a1CO4wj0rm" opacity="1" fill-opacity="0" stroke="#bdd0ea" stroke-width="1" stroke-opacity="1"></use></g></g><g><g><use xlink:href="#d5wKVCaobv" opacity="1" fill-opacity="0" stroke="#18509f" stroke-width="1" stroke-opacity="1"></use></g></g><g><g><use xlink:href="#hNmscT5vd" opacity="1" fill-opacity="0" stroke="#18509f" stroke-width="1" stroke-opacity="1"></use></g></g><g><g><filter id="shadow4140559" x="353.28" y="5.57" width="250.15" height="262.34" filterUnits="userSpaceOnUse" primitiveUnits="userSpaceOnUse"><feFlood></feFlood><feComposite in2="SourceAlpha" operator="in"></feComposite><feGaussianBlur stdDeviation="3.46"></feGaussianBlur><feOffset dx="5" dy="-4" result="afterOffset"></feOffset><feFlood flood-color="#000000" flood-opacity="0.5"></feFlood><feComposite in2="afterOffset" operator="in"></feComposite><feMorphology operator="dilate" radius="1"></feMorphology><feComposite in2="SourceAlpha" operator="out"></feComposite></filter><path d="M388.28 134.87C388.2 82.9 427.38 40.64 475.72 40.57C524.05 40.5 563.36 82.65 563.43 134.62C563.5 186.59 524.32 228.85 475.99 228.91C427.65 228.98 388.35 186.84 388.28 134.87Z" id="e5yZBjZDdx" fill="white" fill-opacity="1" filter="url(#shadow4140559)"></path></g><use xlink:href="#h51W4y8d7" opacity="1" fill="url(#gradienta3pB82m8M)"></use><g><use xlink:href="#h51W4y8d7" opacity="1" fill-opacity="0" stroke="#dddddd" stroke-width="1" stroke-opacity="1"></use></g></g><g><g><use xlink:href="#b3DG1lf7SW" opacity="1" fill-opacity="0" stroke="#895ea4" stroke-width="1" stroke-opacity="1"></use></g></g><g><g><use xlink:href="#k1Pi6qp5T" opacity="1" fill-opacity="0" stroke="#895ea4" stroke-width="1" stroke-opacity="1"></use></g></g><g><use xlink:href="#bsriyKOnl" opacity="1" fill="#bdd0ea" fill-opacity="1"></use></g><g><use xlink:href="#c1mt5TWdN" opacity="1" fill="#dddddd" fill-opacity="1"></use><g><use xlink:href="#c1mt5TWdN" opacity="1" fill-opacity="0" stroke="#dddddd" stroke-width="1" stroke-opacity="1"></use></g></g><g><g><use xlink:href="#b1cV7Grb1X" opacity="1" fill-opacity="0" stroke="#895ea4" stroke-width="1" stroke-opacity="1"></use></g></g><g><g><use xlink:href="#i2QPBm51Xw" opacity="1" fill-opacity="0" stroke="#895ea4" stroke-width="1" stroke-opacity="1"></use></g></g><g><use xlink:href="#a2uwMu4uQg" opacity="1" fill="#efbed8" fill-opacity="1"></use><g><use xlink:href="#a2uwMu4uQg" opacity="1" fill-opacity="0" stroke="#efbed8" stroke-width="1" stroke-opacity="1"></use></g></g></g></g></svg>